# xmcd CD database file
#
# Track frame offsets:
#	150
#	22269
#	66007
#	91607
#	108597
#	127450
#	163962
#	185417
#	204822
#
# Disc length: 3014 seconds
#
# Revision: 1
# Processed by: cddbd v1.5.2PL0 Copyright (c) Steve Scherf et al.
# Submitted via: CDex 1.70beta2
#
DISCID=7e0bc409
DTITLE=Richard Wyands - Then Here and Now
DYEAR=1998
DGENRE=Jazz
TTITLE0=Yes It Is
TTITLE1=Lament
TTITLE2=As Long As There's Music
TTITLE3=Leonora
TTITLE4=Never Let Me Go
TTITLE5=Yesterdays
TTITLE6=Blue Rose
TTITLE7=Leonora
TTITLE8=Blue Rose
EXTD=YEAR: 1998
EXTT0=
EXTT1=
EXTT2=
EXTT3=
EXTT4=
EXTT5=
EXTT6=
EXTT7=
EXTT8=
PLAYORDER=
